<svg xmlns="http://www.w3.org/2000/svg" viewBox="0 0 161.716 82.084">
  <defs>
    <style>
      .cls-1 {
        fill: #e4eefa;
      }
    </style>
  </defs>
  <path id="Path_9" data-name="Path 9" class="cls-1" d="M161.16,71.924s-2.679-3.89-32.708-10.5c0,0,10.5-5.855,8.792-20.74,0,0,14.647,1.707,13.437-5.855,0,0-6.113-14.885-20.026-15.62,0,0-11.948-21-22.209-19.034,0,0-3.434,2.441,14.647,23.916a18.14,18.14,0,0,0-5.855,7.582S79.906,21.909,49.877,28.24c0,0-7.8-7.8-13.417,1.707,0,0-3.176,7.324,5.121,10.737,0,0-1.707,3.414-2.918,11.71,0,0-5.617,1.231-10.976,7.582,0,0-8.058-1.965-11-1.231,0,0-8.3,5.359-16.592,19.53,0,0,.238,3.91,2.937,3.672,0,0,1.211,2.679,15.62-12.444,0,0,6.827.5,10.5-1.211,0,0,61.507-11.968,96.16,5.359,0,0,21.733.715,29.533,5.121C154.829,78.771,164.356,81.212,161.16,71.924ZM136.51,27.267a2.2,2.2,0,1,1-2.2,2.2A2.211,2.211,0,0,1,136.51,27.267Z" transform="translate(-0.1 -0.046)"/>
</svg>
